<svg id="Layer_1" data-name="Layer 1" xmlns="http://www.w3.org/2000/svg" viewBox="0 0 128 128"><defs><style>.cls-1{fill:#0c91ae;}.cls-2{fill:#f0f0f0;}.cls-3{fill:#fff;}.cls-4{fill:#f36e51;}.cls-5{fill:none;}</style></defs><title>Artboard 4</title><rect class="cls-1" width="128" height="128"/><polygon class="cls-2" points="112 68 112 58 80 58 80 68 48 68 48 58 16 58 16 68 0 68 0 128 128 128 128 68 112 68"/><path class="cls-3" d="M13.67,25.47h1.89V35.84h4.61v1.61H13.67m12.12-1.07h0a2.66,2.66,0,0,1-2.32,1.29c-1.32,0-2.25-.61-2.25-2.93V28.44H23v6.47c0,1,.46,1.32,1.22,1.32a1.4,1.4,0,0,0,1.47-1.5V28.44H27.5v9H25.79Zm3.29-7.94h1.72v1h0A2.59,2.59,0,0,1,33,28.19a2,2,0,0,1,2.11,1.36,2.48,2.48,0,0,1,2.29-1.36c1.29,0,2.18.64,2.18,2.4v6.83H37.73V31.26c0-1.18-.36-1.61-1.07-1.61s-1.43.57-1.43,1.75v6H33.4V31.26c0-1.18-.36-1.61-1.11-1.61s-1.43.57-1.43,1.75v6H29Zm12.12-3.07H43v1.82H41.19Zm0,3.07H43v9H41.19Zm3.36,0h1.72v1h0a2.66,2.66,0,0,1,2.32-1.29c1.36,0,2.25.61,2.25,2.43v6.79H49.06V31.26c0-1.18-.36-1.61-1.25-1.61s-1.43.57-1.43,1.75v6H44.55Zm13.8,7.11c0,.32.21.64.46.64a.61.61,0,0,0,.29,0v1.18a2.05,2.05,0,0,1-.89.21c-.79,0-1.47-.32-1.54-1.18a2.34,2.34,0,0,1-2.25,1.32c-1.43,0-2.36-.79-2.36-2.54,0-2,.86-2.43,2.11-2.82l1.39-.39c.64-.18,1-.36,1-1.14s-.29-1.32-1.25-1.32c-1.22,0-1.36.86-1.36,1.72H52.27c0-1.89.79-3,3.15-3,1.57,0,2.86.61,2.86,2.22v5.11h.07Zm-1.72-2.86a12.38,12.38,0,0,1-2,.82A1.47,1.47,0,0,0,53.88,35c0,.75.36,1.36,1.11,1.36,1.07,0,1.61-.82,1.61-2.14Zm2.61-4.25H60.5V25.87h1.82v2.57h1.47v1.32H62.32v5.36c0,.71.21,1,.82,1a3.28,3.28,0,0,0,.64,0v1.32a5.81,5.81,0,0,1-1.47.14c-1.22,0-1.82-.32-1.82-2.18V29.76H59.25Zm6.86,4.72v.54c0,1.22.14,2.75,1.5,2.75S69,35,69,34.44h1.72a3,3,0,0,1-3.15,3.25c-1.47,0-3.29-.43-3.29-4.61,0-2.36.5-4.86,3.32-4.86,2.5,0,3.18,1.5,3.18,4v1ZM69,31.94v-.5c0-1.14-.36-2-1.39-2s-1.5,1.14-1.5,2.32v.18H69Zm7.11-.46c0-4.25,1.22-6.22,3.93-6.22S84,27.19,84,31.48s-1.22,6.22-3.93,6.22-3.93-2-3.93-6.22m6-.07c0-4-.89-4.72-2-4.72s-2,.71-2,4.72.89,4.83,2,4.83,2-.71,2-4.83m3.4-3h1.72v1h0a2.66,2.66,0,0,1,2.32-1.29c1.36,0,2.25.61,2.25,2.43v6.79H90V31.26c0-1.18-.36-1.61-1.25-1.61s-1.43.57-1.43,1.75v6H85.52Zm7.86-3h1.82V37.41H93.39Zm3.43-.11h1.82v1.82H96.82V25.36Zm0,3.07h1.82v9H96.82v-9Zm3.36,0h1.72v1h0a2.66,2.66,0,0,1,2.32-1.29c1.36,0,2.25.61,2.25,2.43v6.79h-1.82V31.26c0-1.18-.36-1.61-1.25-1.61s-1.43.57-1.43,1.75v6h-1.82v-9Zm9.44,4.72v.54c0,1.22.14,2.75,1.5,2.75s1.43-1.47,1.43-2h1.72a3,3,0,0,1-3.15,3.25c-1.47,0-3.29-.43-3.29-4.61,0-2.36.5-4.86,3.32-4.86,2.5,0,3.18,1.5,3.18,4v1l-4.72,0Zm2.9-1.22v-.5c0-1.14-.36-2-1.39-2s-1.5,1.14-1.5,2.32v.18Z"/><path class="cls-4" d="M84,99.7c0,2.43,0,4.86,0,7.28a7.17,7.17,0,0,1-3.64,6.32Q74,117,67.61,120.64a7.08,7.08,0,0,1-7.22,0Q54,117,47.63,113.28A7.05,7.05,0,0,1,44,107Q44,99.71,44,92.4a7.07,7.07,0,0,1,3.62-6.29Q54,82.37,60.38,78.78a7.1,7.1,0,0,1,7.26,0Q74,82.36,80.32,86.1A7.17,7.17,0,0,1,84,92.42C84,94.84,84,97.27,84,99.7Zm-37.79,0c0,2.4,0,4.8,0,7.19a5.16,5.16,0,0,0,2.68,4.65q6.17,3.6,12.38,7.13a5.23,5.23,0,0,0,5.49,0q6.18-3.53,12.34-7.11a5.16,5.16,0,0,0,2.71-4.68q0-7.15,0-14.3a5.14,5.14,0,0,0-2.68-4.65q-6.19-3.61-12.42-7.15a5.18,5.18,0,0,0-5.41,0q-6.22,3.55-12.42,7.16a5.13,5.13,0,0,0-2.67,4.61C46.18,94.9,46.2,97.29,46.2,99.67Z"/><path class="cls-4" d="M72.25,102.61v-2.43h4.67v7.12h-27c-.06-.67-.13-1.34-.17-2A19.64,19.64,0,0,1,51,96.7a8,8,0,0,1,5.05-5,8.34,8.34,0,0,1,2.39-.4c6.11,0,12.23,0,18.34,0l.29,0V96h-.51c-5.83,0-11.67,0-17.5,0a3.6,3.6,0,0,0-3.7,2.45,13.13,13.13,0,0,0-.88,4.22Z"/><polyline class="cls-5" points="128 68 112 68 112 58 80 58 80 68 48 68 48 58 16 58 16 68 0 68"/></svg>